<?xml version="1.0" encoding="UTF-8"?>
<svg id="Livello_2" data-name="Livello 2" xmlns="http://www.w3.org/2000/svg" viewBox="0 0 398 291.9">
  <defs>
    <style>
      .cls-1 {
        stroke-width: 0px;
      }
    </style>
  </defs>
  <g id="Livello_1-2" data-name="Livello 1">
    <path class="cls-1" d="M165.32,129.79c-3.38-11.38-6.58-22.16-9.79-32.94-.76-2.55-1.67-5.07-2.29-7.66-.34-1.42-.89-3.69-.19-4.33,4.83-4.45.9-8.73.18-13.11-1.81-10.99,1.61-19.95,10.44-26.93,1.79-1.41,3.51-3.59,4.1-5.74C173.97,16.4,194.82.32,218.8,0c23.04-.3,44.39,15.85,51.14,38.38.74,2.45,2.53,4.97,4.53,6.6,9.77,7.99,13.2,19.51,8.72,31.37-.89,2.36-.93,3.91.51,6.27,1.17,1.91,1.11,5.17.45,7.5-4.84,16.97-9.97,33.86-15,50.78-.42,1.42-.75,2.86-1.23,4.69h46.82c-3.4-7.54-4.19-15.3-.98-23.11,3.17-7.7,9.07-12.55,16.7-15.21-.89-9.11-4.26-12.89-12.52-14.37-4-.71-6.38-2.94-6.05-7.17.31-3.99,2.87-5.73,6.73-5.93,8.93-.45,17.54,5.02,21.86,13.97.43.9.91,1.81,1.13,2.77,1.44,6.46,4.15,10.97,10.93,14.28,10.97,5.36,14.92,19.83,10.42,31.29-.41,1.05-.86,2.09-1.57,3.81,9.47,0,18.39-.01,27.31,0,7.07.01,9.25,2.17,9.26,9.23.02,42.33.03,84.66.04,127,0,7.5-2.23,9.73-9.92,9.73-64.32,0-128.64,0-192.96,0-49.49,0-98.98-.01-148.47-.02-12.93,0-19.8-5.37-22.85-17.8-2.14-8.73-4.19-17.49-6.67-26.13-.59-2.04-2.35-4.39-4.21-5.32C4.07,238.22-.19,231.56,0,221.49c.23-11.94,3.66-22.55,10.7-32.13,1.23-1.67,2.57-3.7,2.73-5.66,1.33-16.12,10.56-26.96,23.43-35.24,17.43-11.23,37.1-16.14,57.24-19.63,22.41-3.88,44.77-3.45,67.12.47,1.1.19,2.22.27,4.1.49ZM123.71,138.94c-7.29.82-17.42,1.66-27.45,3.15-17.39,2.57-34.34,6.92-49.63,15.96-10.3,6.09-18.88,13.65-19.87,26.97-.26,3.52-1.75,7.41-3.87,10.23-5.68,7.56-9.58,15.52-9.4,25.21.15,7.68,1.97,10.04,9.59,11.25,1.95.31,4.03.43,5.97.14,5.21-.78,9.99-1.88,11.59-8.37.47-1.91,4.16-4.26,6.29-4.18,2.07.08,4.15,2.89,6.02,4.72,2.11,2.08,3.71,5.87,6.02,6.3,5.04.94,10.48.78,15.55-.09,2.07-.35,4.31-3.44,5.25-5.77,1.36-3.37,3.16-5.48,6.8-5.45,3.47.03,4.96,2.36,6.48,5.27,1.32,2.53,3.64,5.67,6.06,6.25,4.35,1.05,9.16.79,13.7.3,3.63-.39,6.34-2.59,7-6.74.54-3.44,3.17-5.71,6.35-4.9,2.46.62,5.32,2.84,6.39,5.1,2.49,5.25,6.01,7.71,13.55,7.67,7.52-.04,10.91-2.48,13.46-7.81,1.07-2.24,3.99-4.42,6.45-4.98,3.18-.73,5.77,1.6,6.31,5.01.63,3.94,3.24,6.18,6.6,6.54,4.84.51,9.88.48,14.65-.37,2.05-.37,4.42-3.08,5.24-5.25,1.32-3.5,2.94-6.05,6.85-6.09,3.98-.04,5.57,2.46,6.63,6.14,1.72,5.97,7.23,6.37,12.18,6.67,5.39.33,10.81-.21,14.03-5.57.54-.9.34-2.27.4-3.42.54-10.9-3.26-20.19-10.21-28.44-1.43-1.69-3.01-4.02-2.98-6.04.18-15.31-8.93-24.23-21.04-30.86-24.31-13.3-50.95-16.94-80.97-18.55ZM221.71,246.33c-5.31-2.33-9.93-4.51-14.69-6.34-1.08-.42-2.82.05-3.94.67-11.63,6.39-23.15,6.28-34.79-.03-1.25-.68-3.49-.68-4.74,0-11.64,6.32-23.14,6.4-34.81.09-1.35-.73-3.77-.68-5.14.05-11.68,6.21-23.17,6.31-34.79-.17-1.24-.69-3.52-.7-4.76-.02-11.81,6.53-23.47,6.45-35.21-.11-.99-.55-2.56-.87-3.54-.49-4.75,1.87-9.4,4.01-14.7,6.32,1.72,6.89,3.51,14.29,5.44,21.66,2.76,10.53,2.81,10.53,13.91,10.53,30,0,60,0,90.01,0,22.17,0,44.34-.04,66.5,0,3.57,0,7.12-.48,8.19-4.27,2.65-9.41,4.83-18.94,7.07-27.88ZM219.01,79.79s0-.03,0-.05c12.99,0,25.99.1,38.98-.04,7.19-.08,12.18-4.23,13.7-10.87,1.27-5.54-1.86-11.7-8.01-14.53-3.68-1.69-4.96-4.34-5.67-8.05-2.44-12.69-9.31-22.45-20.86-28.31-24.03-12.21-51.57,1.42-57.29,27.86-.63,2.89-2.63,6.29-5.03,7.84-6.88,4.44-10.01,9.45-8.46,15.82,1.59,6.53,7.13,10.32,15.15,10.33,12.49,0,24.99,0,37.48,0ZM384.19,278.14v-118.64h-155.27c1.74,2.58,3.67,4.46,4.41,6.72,1.87,5.71,5.79,6.37,11.12,6.35,38.98-.2,77.96-.12,116.94-.1,8.35,0,9.81,1.51,9.81,10,0,29.66,0,59.31,0,88.97v6.71h12.99ZM357.88,219.38h-106.06c2.04,12.92-4.57,20.32-14.98,25.43h121.04v-25.43ZM227.69,278.03h130.14v-18.99h-125.56c-1.54,6.39-3.01,12.5-4.57,18.99ZM239.9,186.11c2.99,5.29,6.26,10.12,8.5,15.38,1.46,3.43,3.27,4.27,6.69,4.26,32.66-.1,65.32-.06,97.98-.07,1.58,0,3.17-.15,4.61-.23v-19.35h-117.78ZM269.48,93.21h-100.77q2.23,12.81,14.34,12.82c.67,0,1.34-.04,2,0,4.48.29,7.16,2.79,7.2,6.7.04,3.95-2.56,6.49-7.08,6.71-2.75.13-5.51.02-8.91.02,1.22,4.21,2.02,7.61,3.22,10.86.51,1.4,1.6,3.14,2.85,3.61,5.89,2.25,11.92,4.11,18.38,6.27,3.6-8.93,7.17-17.68,10.65-26.46,2.69-6.79,3.87-7.68,11.01-7.69,13.17-.02,26.33.04,39.5-.12,1.47-.02,3.75-.88,4.24-1.98,1.46-3.29,2.23-6.88,3.37-10.74ZM236.04,119.46c-4.04,0-7.19-.21-10.28.11-1.18.12-2.81,1.23-3.26,2.29-3.26,7.79-6.26,15.69-9.56,24.07,13.21,0,25.83.03,38.44-.07.91,0,2.41-.77,2.64-1.51,2.56-8,4.92-16.06,7.45-24.5-2.14-.16-3.46-.14-4.74-.38-5.06-.97-7.7,1.09-8.64,6.13-.55,2.91-1.77,5.71-2.82,8.52-1.58,4.22-4.74,5.92-8.55,4.73-3.56-1.11-5.21-4.74-3.98-8.87.95-3.17,1.96-6.32,3.28-10.53ZM351.3,132.64c-.04-7.27-5.72-13.05-12.9-13.14-7.36-.09-13.32,5.83-13.33,13.26,0,7.17,5.8,13.07,12.94,13.16,7.36.09,13.33-5.88,13.29-13.27Z"/>
    <path class="cls-1" d="M112.96,160.83c-1.08,1.07-2.64,3.71-4.9,4.63-6.29,2.57-12.83,4.54-19.34,6.51-3.83,1.15-6.98-.06-8.46-4.02-1.36-3.63.46-7.18,4.57-8.65,6.1-2.17,12.24-4.24,18.44-6.08,5.37-1.59,9.73,1.28,9.68,7.61Z"/>
    <path class="cls-1" d="M172.4,164.23c.2,5.71-3.34,9.15-7.77,7.94-7.19-1.95-14.27-4.42-21.24-7.07-3.27-1.24-4.76-4.17-3.62-7.76,1.2-3.77,4.16-5.46,7.79-4.41,7.17,2.06,14.28,4.43,21.22,7.16,1.79.71,2.87,3.23,3.62,4.14Z"/>
    <path class="cls-1" d="M132.86,179.17c0,2.33.27,4.69-.06,6.97-.54,3.74-2.8,6.03-6.73,6.01-3.98-.02-6.22-2.28-6.4-6.17-.21-4.64-.26-9.31-.04-13.95.17-3.65,2.46-5.83,6.1-6.01,3.87-.2,6.37,1.94,6.98,5.7.39,2.43.07,4.97.07,7.46.03,0,.05,0,.08,0Z"/>
    <path class="cls-1" d="M245.26,51.41c.15,4.89-2.01,7.99-5.87,8.41-3.67.41-6.69-2.52-7.35-7.14-1.14-7.98-4.62-11.47-12.87-12.73-4.13-.63-6.9-2.61-6.88-7.04.01-3.9,3.3-6.22,8.12-6.1,13.1.32,24.46,11.57,24.86,24.6Z"/>
  </g>
</svg>