<?xml version="1.0" encoding="UTF-8"?>
<svg id="Livello_2" data-name="Livello 2" xmlns="http://www.w3.org/2000/svg" viewBox="0 0 388.29 350.52">
  <defs>
    <style>
      .cls-1 {
        stroke-width: 0px;
      }
    </style>
  </defs>
  <g id="Livello_1-2" data-name="Livello 1">
    <path class="cls-1" d="M31.89,257.16c-5.81,3.59-13.79,32.34-14.34,34.76-1.8,7.96,1.24,11.82,9.39,11.92,3.59.04,7.19,0,10.73,0,.33,2.11.5,3.43.74,4.72,4.62,24.85,25.65,42.3,50.51,41.93,24.83-.37,45.43-18.09,49.2-42.72.59-3.84,2.46-3.91,5.36-3.91,35.33.06,70.66.07,105.99.04,6.11,0,12.77,1.78,16.75-5.28,1.24,4.57,1.95,8.54,3.41,12.2,2.17,5.43,6.11,6.56,11.27,3.74,2.27-1.24,4.5-2.53,6.85-3.86,10.86,37.45,47.7,47.19,72.35,34.57,12.98-6.65,21.98-16.84,25.95-30.83,5.8-20.39.07-37.96-14.97-52.78,1.76-1.07,3.02-1.87,4.31-2.62,7.42-4.37,7.95-8.39,1.84-14.55-7.49-7.55-16.51-12.54-26.94-14.29-7.63-1.29-15.44-1.45-21.95-2.02-.45-2.74-.3-5.91-1.5-8.44-8.92-18.81-18.12-37.49-27.21-56.22-.61-1.25-1.05-2.58-1.81-4.46,4.28.8,7.83,1.61,11.42,2.1,5.94.82,9.34-1.75,10.01-7.63,1.36-11.92,2.66-23.84,3.83-35.78.87-8.92-.15-10.18-9.25-10.45-16.64-.49-33.15,1.35-48.58,7.5-8.49,3.39-16.19,3.66-24.5,1.18-.32-.1-.65-.18-.98-.21-3.33-.31-5.15-2.18-6.63-5.18-7.79-15.76-15.81-31.42-23.82-47.25,11.99-5.16,19.91-14.52,21.15-28.98.07-.84,1.9-1.99,3.05-2.19,2.78-.48,5.66-.29,8.45-.71,3.08-.47,5.19-2.64,4.14-5.57-.65-1.81-3.15-3.51-5.16-4.13-2.09-.64-4.65-.13-6.93.28-3.67.66-5.38-.69-7.16-4.09C220.57,5.82,210.24-.52,196.45.03c-13.33.54-23.11,7.24-28.5,19.45-5.49,12.44-3.34,24.08,5.2,34.58.8.98,1.62,1.95,1.71,2.06-5.06,5.69-10.89,10.34-14.26,16.36-19.37,34.55-32.44,70.82-28.15,111.57h-18.13v-5.46c0-28,.03-56.01-.01-84.01-.01-9.44-5.08-14.58-14.46-14.6-28.5-.05-57-.05-85.5,0-9.07.01-14.28,5.23-14.31,14.24-.05,13.5-.02,27-.02,40.51v3.48c.24.58.38,1.24.38,1.99v43.5c1.33,6.68,6.21,10.45,13.97,10.51,5.67.05,11.33.01,17,.01,6.6,0,13.19,0,19.93,0,.8,4.36,1.6,8.1,2.14,11.88,1.18,8.24,3.34,15.55,13.95,15.49-.52,2.12-1,3.54-1.21,5-.74,5.14-3.18,8.37-8.27,10.57-4.94,2.14-23.73,15.16-26.01,20M193.53,10.32c9.72-1.93,19.5,2.9,24.45,12.68-13.91.89-27.28,1.75-40.69,2.61.62-6.95,7.83-13.62,16.25-15.29ZM220.02,32.99c.04,12.01-9.39,21.63-21.13,22.15-11.74.52-21.85-7.76-23.03-19.32,14.72-.94,29.42-1.88,44.15-2.83ZM153.15,112.11c5.57-12.94,11.35-25.94,18.63-37.95,8.55-14.11,25.22-10.19,31.81.57,1.56,2.55,3.18,5.09,4.52,7.76,5.38,10.71,10.92,21.36,15.87,32.26,2.82,6.22,6.99,9.73,13.69,10.9,9.67,1.68,19.29,3.73,28.91,5.7,5.75,1.18,7.64,3.64,6.67,8.38-1.01,4.94-4.2,6.85-9.56,5.81-13.07-2.55-26.11-5.31-39.24-7.5-5.01-.84-7.98-3.12-10.03-7.63-2.75-6.05-5.69-12.07-9.21-17.7-1.36-2.17-4.59-4.55-6.82-4.41-2.21.13-5.13,2.91-6.18,5.23-4.59,10.14-8.61,20.53-13.11,31.49-11.05-2.28-22.09-4.55-34.08-7.02,2.73-8.92,4.62-17.75,8.12-25.88ZM248.04,248.13c.49-4.53,1.22-9.77,1.58-15.03,1.01-14.59,2.72-29.21,2.51-43.79-.18-12.4-6.63-19.05-18.78-22.01-13.74-3.34-27.62-6.11-41.44-9.15-1.59-.35-3.14-.82-5.64-1.48,4.12-11.42,8.09-22.44,12.6-34.94,2.91,5.74,5.24,10,7.25,14.41,3,6.58,7.67,10.34,15.09,11.43,10.2,1.5,20.26,3.93,30.41,5.78,3.04.55,4.98,1.73,6.28,4.73,8.18,18.87,14.01,38.38,17.72,58.65,2.84,15.52-2.46,27.68-12.41,38.18-5.22-2.33-9.87-4.41-15.18-6.78ZM255.87,261.79c-13.67,11.39-28.4,5.36-42.65,7.64.16-2.27.14-3.43.34-4.55,1.25-6.79,1.34-6.88,8.36-6.69,7.83.21,15.67.31,23.47.88,3.14.23,6.19,1.56,10.47,2.72ZM142.6,147.94c6.65,1.29,12.17,2.3,17.66,3.43,5.36,1.1,10.7,2.3,15.97,3.45.01,9.24.95,10.39,9.67,12.31,14.96,3.29,29.95,6.45,44.87,9.93,7.9,1.84,10.97,5.36,11.61,13.53.42,5.28.18,10.66-.29,15.95-1.22,13.75-2.72,27.47-4.15,41.56h-18.96c.19-3.88.32-7.46.54-11.03.58-9.15,1.29-18.29,1.8-27.44.43-7.8-3.06-12.24-10.88-13.53-18.4-3.03-36.86-5.67-55.23-8.89-9.78-1.71-13.64-6.11-13.9-15.95-.2-7.55.78-15.13,1.28-23.32ZM201.23,268.92c-23.39,1.43-32.41-10.04-25.5-32.5.68-2.22,1.68-4.34,2.36-6.56,1.9-6.18,5.06-10.06,12.48-8.66,4.3.81,6.4-1.97,6.43-6.22.03-3.44,0-6.88,0-10.88,4.02.66,8.1,1.15,12.06,2.11.93.23,2.16,2.09,2.1,3.14-.74,13.45-1.14,26.95-2.82,40.29-.8,6.36-4.16,12.4-6.57,19.15.39-.11-.07.12-.54.14ZM52.4,90.26h9.56v10.94h-9.56v-10.94ZM15.4,184.25c-3.77.01-5.64-1.25-5.42-5.2.15-2.79.03-5.6.03-9.06.02,0,.03,0,.04,0v-29.63h-.02c0-15.99-.1-31.29.18-46.59.02-1.28,2.6-3.54,4.06-3.59,8.97-.34,17.97-.17,27.72-.17,0,5.01-.04,9.78.01,14.55.06,5.53,1.29,6.77,6.81,6.84,5.66.07,11.33-.08,17,.04,4.7.1,6.66-2.11,6.53-6.7-.13-4.64-.03-9.29-.03-14.66,9.9,0,19.49-.17,29.05.24,1.05.05,2.76,3.42,2.79,5.27.24,14.16.13,28.33.13,42.5,0,13.5-.1,27,.06,40.5.05,4.02-1.26,5.69-5.45,5.68-27.83-.11-55.66-.1-83.49-.02ZM63.69,206.07c-.28-3.76-1.25-7.47-2.03-11.81,2.24,0,3.86,0,5.49,0,23.13-.02,46.27-.46,69.38.17,8.64.24,17.21,3.03,25.83,4.55,5.57.98,11.17,1.75,16.75,2.64,6.48,1.03,7.37,2.1,7.69,9.65-1.81,0-3.61,0-5.4,0-37.11,0-74.22-.08-111.32.08-4.15.02-6.06-1.01-6.39-5.29ZM89.06,340.45c-21,.48-40.49-16.8-40.61-36.29h15.19c.56,1.53,1.11,3.23,1.78,4.88,3.79,9.46,12.93,15.62,23,15.53,10.23-.09,19.52-6.1,22.63-15.83,1.42-4.45,3.64-5.16,7.51-4.87,3.11.24,6.26.05,9.35.05.84,18.42-18.21,36.07-38.85,36.54ZM74.87,304.25h27.02c-2.82,7.13-7.47,10.37-14.12,10.17-6.27-.19-10.81-3.67-12.89-10.17ZM145.01,293.54H28.23c.18-2.35.35-4.13.65-5.49,0-.13-.01-.26-.01-.4.17-8.56,5.42-18.35,10.63-24.97,3.31-4.2,7.23-8.08,11.71-10.95,14.78-9.25,23.98-11.24,36.81-12.47,7.07-.68,14.4-.81,21.39.27,21.33,3.3,33.39,16.55,35.53,38.32.5,5.08.07,10.24.07,15.68ZM259.55,290.62c-1.35,1.55-3.69,3.18-5.57,3.19-31.99.18-63.99.11-95.99.08-.65,0-1.29-.15-2.14-.26-.5-7.22-.45-14.09-1.54-20.76-4.24-25.85-21.04-41.63-47.14-43.65-10.19-.79-20.52.24-30.81.43-.24-7.21.77-8.34,8.39-8.33,28.32,0,56.65,0,85.68,0-.59,1.72-1.11,3.01-1.48,4.35-1.84,6.72-4.4,13.35-5.29,20.2-2.25,17.38,7.7,29.86,25.04,32.29,3.94.55,7.96.8,11.94.84,11.5.11,23.01-.28,34.49.12,12.16.43,22.62-3.7,30.51-12.37,6.86-7.54,12.97-16.07,17.89-25,5.33-9.67,3.47-20.73.99-30.86-4.07-16.61-9.43-32.91-14.28-49.33-.46-1.57-1.13-3.09-1.7-4.63,16.69-5.35,20.4-24.74,6.3-35.6,12.44-1.62,24.89-3.25,38.23-4.99-1.28,12.34-2.41,23.19-3.6,34.61-5.58-1.07-10.7-2.43-15.9-2.9-2.63-.24-6.53.31-7.81,2.03-1.3,1.74-.93,5.77.17,8.1,9.61,20.33,19.46,40.53,29.46,60.67,1.63,3.29,1.58,5.31-.96,8.22-18.41,21.09-36.55,42.41-54.9,63.56ZM277.96,304.64c-1.43-9.08-2.78-17.2,3.73-24.55,10.14-11.46,19.87-23.29,30.04-34.72,1.94-2.18,4.94-3.96,7.77-4.68,12.69-3.24,25.4-3.48,37.58,2.14,4.17,1.92,7.94,4.68,12.91,7.67-31.14,18.32-61.26,36.04-92.04,54.14ZM337.62,285.48c8,0,14.66,6.77,14.53,14.76-.14,7.95-6.48,14.17-14.46,14.19-7.97.01-14.41-6.25-14.53-14.12-.12-8.01,6.52-14.82,14.47-14.82ZM375.94,313.26c-6.03,17.31-22.55,28.2-41.1,27.09-17.33-1.03-32.87-14.26-36.68-31.09-.66-2.93-.49-4.92,2.61-6.43,4-1.94,7.72-4.44,12.18-7.05.67,16.65,8.13,26.66,20.62,28.44,12.21,1.74,23.41-4.87,27.32-16.11,4.29-12.33-.86-23.56-14.99-31.69,2.78-1.64,5.27-3.12,7.77-4.59,2.57-1.51,5.14-3.01,7.59-4.44,14.67,10.42,20.54,29.02,14.67,45.87Z"/>
  </g>
</svg>