<?xml version="1.0" encoding="UTF-8"?>
<svg id="Livello_2" data-name="Livello 2" xmlns="http://www.w3.org/2000/svg" viewBox="0 0 167.61 266.84">
  <defs>
    <style>
      .cls-1 {
        stroke-width: 0px;
      }
    </style>
  </defs>
  <g id="Livello_1-2" data-name="Livello 1">
    <path class="cls-1" d="M.17,159.94c6.9-1.76,13.82-2.26,21.04-2.36C8.28,143.64,2.24,127.01.03,108.61c6.96-1.88,13.88-2.27,21.14-2.47C8.28,92.19,2.24,75.6,0,57.03c19.58-3.84,38.47-3.24,56.5,6.45,0-.47.05-.88,0-1.27-1.96-12.27.61-23.77,6.08-34.73,5.23-10.46,12.24-19.57,21.29-27.47,2.29,2.27,4.66,4.42,6.8,6.78,9.32,10.34,16.51,21.88,19.71,35.61,1.48,6.37,1.76,12.81.76,19.29-.06.38-.11.77-.14,1.15-.01.16.02.32.04.65,17.94-9.67,36.84-10.29,56.41-6.49-.75,9.25-3.05,17.91-6.48,26.29-3.43,8.37-8.03,16-14.7,22.86,7.31.22,14.27.58,21.27,2.47-2.18,18.37-8.24,34.99-20.85,48.61,6.84.74,13.73,1.49,20.94,2.27-.54,3.54-.88,6.6-1.5,9.61-2.19,10.66-5.96,20.71-11.87,29.89-8.89,13.81-21.6,21.88-37.61,24.92-10.6,2.02-21.22,1.9-31.87.32-2.06-.3-4.25.33-6.38.56-11.95,1.29-23.77.76-35.31-2.88-14.09-4.44-24.48-13.42-31.73-26.16-6.19-10.87-9.84-22.56-11.17-35-.02-.21,0-.43,0-.82ZM75.72,111.94c.07-.29.13-.4.12-.5-.05-.38-.11-.77-.21-1.14-1.73-7.07-4.26-13.84-7.83-20.2-5.99-10.64-14.47-18.31-26.3-22-7.69-2.4-15.57-3.2-23.59-2.98-2.02.06-4.04.24-6.17.37,1.47,6.64,3.56,12.74,6.45,18.55,4.26,8.58,9.93,15.94,18.29,20.95,6.27,3.76,13.15,5.74,20.34,6.7,6.27.84,12.55.98,18.9.23ZM11.81,116.9c.15.79.23,1.38.37,1.96,1.52,6.14,3.65,12.06,6.56,17.69,5.5,10.62,13.21,18.9,24.65,23.21,10.31,3.89,20.99,4.6,31.86,3.66.2-.02.38-.16.63-.27-.08-.49-.13-.92-.23-1.34-1.43-5.99-3.48-11.77-6.23-17.28-6.01-12.04-14.81-20.96-27.96-25.04-8.24-2.55-16.68-3.32-25.25-2.9-1.41.07-2.83.2-4.39.31ZM91.78,111.88c.29.06.55.15.82.18,6.87.63,13.71.45,20.51-.72,8.36-1.43,16.14-4.27,22.78-9.72,7.07-5.79,11.87-13.23,15.26-21.59,1.88-4.63,3.29-9.44,4.98-14.36-1.03-.16-1.56-.28-2.1-.32-6.92-.51-13.82-.32-20.66.94-11.19,2.06-20.86,6.83-28.16,15.82-6.87,8.47-10.87,18.29-13.42,28.77-.07.3,0,.64,0,1.01ZM155.77,117c-.58-.1-.95-.19-1.33-.22-6.53-.52-13.04-.4-19.52.63-13,2.07-23.9,7.7-31.69,18.64-5.63,7.92-9.13,16.76-11.42,26.13-.08.35-.01.73-.01,1.36,4.99,0,9.91.2,14.8-.05,6.5-.33,12.8-1.76,18.84-4.25,10.65-4.4,17.91-12.32,23.16-22.31,3.28-6.25,5.64-12.83,7.17-19.93ZM91.48,214.66c.87.13,1.35.23,1.84.26,7.43.51,14.82.29,22.13-1.22,10.81-2.24,20.05-7.15,27.01-15.91,4.8-6.04,8.24-12.83,10.69-20.12,1.01-3.01,1.82-6.09,2.77-9.29-.82-.1-1.31-.21-1.79-.2-5.85.12-11.75-.19-17.54.47-12.52,1.44-23.41,6.35-31.53,16.42-5.24,6.51-8.83,13.88-11.36,21.79-.8,2.51-1.46,5.07-2.23,7.8ZM11.84,168.33c.06.44.07.71.13.96,1.79,7.64,4.5,14.92,8.47,21.71,4.48,7.64,10.28,13.98,18.29,18.04,11.5,5.83,23.8,6.77,36.39,5.78.25-.02.49-.16.75-.25-.04-.35-.04-.63-.11-.9-1.63-6.87-3.99-13.47-7.36-19.67-4.79-8.8-11.16-16.06-20.37-20.46-10.37-4.95-21.39-6.1-32.69-5.49-1.14.06-2.27.19-3.5.29ZM83.78,14.42c-6.84,7.9-12.23,16.24-15.41,25.91-3.31,10.08-2.92,20.02.82,29.9,3.13,8.27,7.84,15.58,13.55,22.29.31.37.55.8.96,1.4.47-.6.66-.86.88-1.11,5.02-5.88,9.31-12.23,12.45-19.32,3.84-8.7,5.54-17.7,3.69-27.18-2.04-10.46-7.08-19.46-13.53-27.77-1.04-1.34-2.16-2.62-3.41-4.12ZM66.46,174.16c8.36,8.53,13.5,18.56,17.32,29.9,3.8-11.38,8.99-21.39,17.28-29.89-.73-.05-1.1-.08-1.47-.11-4.57-.38-9.14-.77-13.72-1.12-1.3-.1-2.62-.14-3.92-.03-3.64.3-7.26.7-10.9,1.03-1.4.12-2.81.14-4.6.22ZM100.94,122.91c-4.66-.39-9.06-.76-13.45-1.12-1.69-.14-3.4-.44-5.08-.33-3.14.2-6.26.7-9.4.98-2.06.18-4.13.2-6.55.31,8.36,8.52,13.5,18.55,17.33,29.42,3.8-10.91,8.99-20.88,17.15-29.26Z"/>
    <path class="cls-1" d="M78.44,217.97h10.88c0,.63,0,1.21,0,1.8,0,10.89-.03,34.15.04,45.04.01,1.58-.4,2.11-2.01,2.03-2.59-.13-5.19-.06-7.79-.02-.85.01-1.34-.14-1.34-1.16.03-11.61.03-35.59.05-47.19,0-.1.07-.2.18-.49Z"/>
  </g>
</svg>