<?xml version="1.0" encoding="UTF-8"?>
<svg id="Livello_2" data-name="Livello 2" xmlns="http://www.w3.org/2000/svg" viewBox="0 0 221.9 162.73">
  <defs>
    <style>
      .cls-1 {
        stroke: #3b221b;
        stroke-miterlimit: 10;
      }

      .cls-1, .cls-2 {
        fill: #3b221b;
      }

      .cls-2 {
        stroke-width: 0px;
      }
    </style>
  </defs>
  <g id="Livello_1-2" data-name="Livello 1">
    <g>
      <path class="cls-2" d="M110.95,10c27.52,0,53.29,7.78,72.54,21.89,18.32,13.43,28.41,31,28.41,49.47s-10.09,36.03-28.41,49.47c-19.25,14.12-45.01,21.89-72.54,21.89s-53.29-7.78-72.54-21.89c-18.32-13.43-28.41-31-28.41-49.47s10.09-36.03,28.41-49.47c19.25-14.12,45.01-21.89,72.54-21.89M110.95,0C49.67,0,0,36.43,0,81.36s49.67,81.36,110.95,81.36,110.95-36.43,110.95-81.36S172.22,0,110.95,0h0Z"/>
      <g>
        <path class="cls-1" d="M80.18,62.17c0,.54-.83,1.78-2.49,3.74-1.66,1.96-3.33,3.65-5.02,5.08-1.52,2.44-2.63,4.45-3.34,6.05-.71,1.59-1.58,4.11-2.63,7.56-1.31,4.19-2.91,7.52-4.83,9.98-1.91,2.46-4.6,4.65-8.07,6.58-4.96,2.76-10.04,4.14-15.24,4.14-4.41,0-7.97-1.2-10.68-3.59-2.72-2.4-4.07-5.54-4.07-9.43,0-3.31,1.03-6.47,3.08-9.45s4.86-5.4,8.42-7.24c3.56-1.84,6.86-2.76,9.9-2.76.26,0,.48.02.67.06,0-.53.15-1.48.45-2.82-.39.04-.85.06-1.38.06-3.44,0-6.19-.76-8.23-2.28-2.04-1.52-3.06-3.54-3.06-6.06,0-4.36,2.47-8.23,7.41-11.61,4.94-3.38,10.62-5.07,17.04-5.07,5.09,0,9.25,1.27,12.48,3.82,2.25-.83,3.9-1.25,4.97-1.25,2.07,0,3.11.86,3.11,2.57,0,1.58-1.21,3.55-3.63,5.9.17,1.18.26,2.16.26,2.95,0,2.31-.67,4.78-2.02,7.41-.41.79-.7,1.19-.87,1.19-.11,0-.17-.06-.19-.19.02-.11.06-.21.13-.32,1.58-2.61,2.37-5.35,2.37-8.21,0-.88-.04-1.69-.13-2.44-3.57,3.14-7.56,5.89-11.95,8.23s-8.58,3.96-12.56,4.86c-.69,1.11-1.21,2.27-1.57,3.47,5.65.96,8.47,4.03,8.47,9.21v.64c4.26-1.16,9.49-5.38,15.69-12.67,1.39-2.18,2.81-4.11,4.27-5.77,1.45-1.67,2.45-2.5,2.98-2.5.13,0,.21.06.26.19ZM71.55,72.31c-5.75,6.4-10.65,10.14-14.69,11.23-.43,2.93-1.8,5.6-4.12,8.01-2.32,2.41-4.67,3.61-7.04,3.61-1.26,0-2.32-.39-3.16-1.16-.85-.77-1.27-1.72-1.27-2.86s.4-2.23,1.2-3.18c.8-.94,1.69-1.41,2.68-1.41,1.5,0,2.25.69,2.25,2.05,0,.62-.25,1.18-.74,1.67-.49.49-1.04.74-1.64.74-1.13,0-1.7-.5-1.7-1.51,0-.15.04-.39.13-.71.04-.17.06-.33.06-.48,0-.13-.06-.19-.19-.19-.32,0-.64.35-.96,1.04-.32.7-.48,1.35-.48,1.97,0,1.01.36,1.84,1.09,2.5.73.66,1.64.99,2.73.99,2.18,0,4.42-1.19,6.72-3.56,2.3-2.37,3.6-4.84,3.9-7.41-.47.09-1.02.13-1.64.13-2.74,0-4.9-.92-6.48-2.78-1.58-1.85-2.37-4.36-2.37-7.52-5.39.34-10.1,2.58-14.13,6.72-4.03,4.14-6.05,8.8-6.05,13.97,0,3.1,1.15,5.61,3.45,7.54,2.3,1.93,5.31,2.89,9.03,2.89,5.05,0,9.64-1.79,13.76-5.36,4.13-3.57,8.92-9.9,14.37-18.99,1.67-2.82,3.43-5.48,5.29-7.96ZM69.98,49.12c-2.85-2.25-6.76-3.37-11.74-3.37-6.01,0-11.51,1.66-16.51,4.99-4.99,3.33-7.49,6.99-7.49,10.99,0,2.46.98,4.38,2.95,5.76,1.97,1.38,4.71,2.07,8.21,2.07h1.12c2.5-8.19,10.32-15,23.45-20.44ZM56.44,83.09c.15-2.54-.48-4.65-1.89-6.3-1.41-1.66-3.44-2.71-6.1-3.16-.32,1.09-.48,2.18-.48,3.27,0,1.9.61,3.43,1.84,4.59,1.23,1.16,2.85,1.73,4.86,1.73.62,0,1.21-.04,1.76-.13ZM74.47,55.95c-.56-2.55-1.83-4.65-3.82-6.32-3.83,1.9-7.64,4.67-11.42,8.29-3.79,3.63-6.73,7.32-8.82,11.08,3.81-.9,7.9-2.53,12.27-4.89,4.37-2.36,8.3-5.09,11.79-8.17ZM78.06,50.3c0-1.41-.81-2.12-2.44-2.12-1.24,0-2.73.42-4.46,1.25,1.84,1.58,3.09,3.62,3.75,6.1,2.1-2.03,3.14-3.77,3.14-5.23Z"/>
        <path class="cls-1" d="M85.49,81.83c-.02.06-.13.24-.32.51l-1.38,1.89c-4.03,5.59-7.1,8.39-9.22,8.39-1.01,0-1.85-.36-2.52-1.07-.67-.72-1.01-1.61-1.01-2.68,0-1.24.74-3.12,2.21-5.65l5.01-8.5c.66.15,1.19.22,1.57.22.58,0,1.39-.07,2.44-.22l-7.28,11.97c-1.05,1.73-1.57,3.07-1.57,4.01s.5,1.44,1.51,1.44c1.91,0,5.26-3.39,10.06-10.19.11-.21.21-.32.32-.32.13,0,.19.06.19.19ZM85.02,68.56c0,.75-.32,1.45-.95,2.1-.63.65-1.32.98-2.07.98-.96,0-1.44-.48-1.44-1.44,0-.71.33-1.38.99-2.04.66-.65,1.36-.98,2.09-.98.92,0,1.38.46,1.38,1.38Z"/>
        <path class="cls-1" d="M106.12,81.83c0,.49-1.55,2.57-4.66,6.23-2.57,3.04-4.6,4.56-6.1,4.56-.94,0-1.74-.38-2.39-1.14s-.98-1.67-.98-2.74c0-.83.42-2,1.25-3.5l-.64.87c-1.97,2.53-3.41,4.21-4.33,5.07-1.01.96-1.96,1.44-2.86,1.44s-1.73-.37-2.37-1.11-.96-1.64-.96-2.71c0-1.24.48-2.66,1.44-4.27l5.84-9.82c.73.15,1.29.22,1.7.22s1.13-.07,2.18-.22l-7.64,12.58c-.77,1.28-1.16,2.42-1.16,3.4s.41,1.44,1.22,1.44c2.16,0,5.63-4.03,10.4-12.1l3.14-5.33c.66.15,1.22.22,1.67.22.53,0,1.29-.07,2.28-.22l-5.13,8.37c-2.44,3.98-3.66,6.54-3.66,7.67,0,.92.44,1.38,1.32,1.38,1.71,0,4.5-2.7,8.35-8.1l1-1.38.58-.71c.11-.21.21-.32.32-.32.13,0,.19.06.19.19Z"/>
        <path class="cls-1" d="M122.95,59.09c-8.98,14.95-14.22,23.74-15.71,26.37-1.49,2.63-2.23,4.37-2.23,5.23,0,.96.41,1.44,1.22,1.44,1.8,0,5.1-3.39,9.89-10.19.11-.21.23-.32.39-.32.09.02.13.09.13.19,0,.13-.11.3-.32.51l-1.38,1.89c-4.05,5.59-7.04,8.39-8.96,8.39-.92,0-1.67-.35-2.26-1.04s-.88-1.58-.88-2.65c0-1.18.27-2.31.82-3.42.55-1.1,2.4-4.28,5.57-9.55,3.87-6.44,7.13-12.02,9.79-16.75.64.17,1.21.26,1.7.26.81,0,1.56-.13,2.25-.39Z"/>
        <path class="cls-1" d="M127.62,81.83c-.02.06-.13.24-.32.51l-1.38,1.89c-4.03,5.59-7.1,8.39-9.22,8.39-1.01,0-1.85-.36-2.52-1.07-.68-.72-1.01-1.61-1.01-2.68,0-1.24.74-3.12,2.21-5.65l5.01-8.5c.66.15,1.19.22,1.57.22.58,0,1.39-.07,2.44-.22l-7.28,11.97c-1.05,1.73-1.57,3.07-1.57,4.01s.5,1.44,1.51,1.44c1.91,0,5.26-3.39,10.06-10.19.11-.21.21-.32.32-.32.13,0,.19.06.19.19ZM127.15,68.56c0,.75-.31,1.45-.95,2.1-.63.65-1.32.98-2.07.98-.96,0-1.44-.48-1.44-1.44,0-.71.33-1.38.99-2.04.66-.65,1.36-.98,2.09-.98.92,0,1.38.46,1.38,1.38Z"/>
        <path class="cls-1" d="M150.24,81.83c0,.45-1.56,2.53-4.69,6.23-2.53,3.04-4.52,4.56-5.98,4.56-.99,0-1.79-.37-2.41-1.11s-.93-1.66-.93-2.78.34-2.41,1.03-3.75c-2.14,3-3.77,5.02-4.91,6.06-1.13,1.05-2.23,1.57-3.3,1.57-1.13,0-2.09-.49-2.86-1.46-.77-.97-1.16-2.2-1.16-3.67,0-4.11,2.9-7.74,8.7-10.91,2.55-1.41,4.6-2.12,6.16-2.12,1.33,0,1.99.64,1.99,1.93,0,.36-.09.85-.26,1.44l1.64-3.11c.64.15,1.21.22,1.7.22.58,0,1.33-.07,2.25-.22l-5.68,9.4c-1.97,3.3-2.95,5.47-2.95,6.51s.42,1.51,1.25,1.51,2.23-.98,4.11-2.94c1.88-1.96,3.8-4.37,5.75-7.25.13-.21.25-.32.35-.32.13,0,.19.06.19.19ZM141.4,76.52c0-1.05-.48-1.57-1.44-1.57-1.97,0-4.55,1.93-7.75,5.78-3.2,3.85-4.8,6.96-4.8,9.34,0,1.39.62,2.09,1.86,2.09,1.48,0,4.03-2.45,7.67-7.35,2.97-4.02,4.46-6.78,4.46-8.28Z"/>
        <path class="cls-1" d="M176,81.83c0,.45-1.55,2.53-4.66,6.23-2.55,3.04-4.55,4.56-6.01,4.56-.96,0-1.77-.37-2.43-1.12-.65-.75-.98-1.67-.98-2.76,0-.96.2-1.85.59-2.68.4-.82,1.43-2.45,3.1-4.89,1.73-2.57,2.6-4.2,2.6-4.91,0-.88-.46-1.32-1.38-1.32-3.12,0-7.93,5.8-14.44,17.39-1.05-.09-1.68-.13-1.89-.13-.75,0-1.45.04-2.12.13l5.01-7.92c2.85-4.53,4.27-7.37,4.27-8.5,0-.64-.27-.96-.8-.96-1.09,0-3.25,2.31-6.46,6.91-.19.28-.34.43-.45.45-.11,0-.17-.06-.19-.19.02-.11.06-.19.13-.26l.61-.8c3.28-4.39,5.48-6.59,6.62-6.59.73,0,1.35.33,1.86.99.51.66.77,1.46.77,2.37,0,1.37-.8,3.27-2.41,5.71,2.53-3.49,4.47-5.87,5.82-7.15,1.36-1.28,2.61-1.93,3.77-1.93.94,0,1.73.39,2.37,1.16s.96,1.72.96,2.86c0,1.43-.98,3.63-2.95,6.58-2.01,3.02-3.02,4.94-3.02,5.78,0,.88.44,1.32,1.32,1.32,1.91,0,5.19-3.39,9.86-10.19.11-.21.21-.32.32-.32.13,0,.19.06.19.19Z"/>
        <path class="cls-1" d="M194.99,81.79c0,.34-.63,1.14-1.89,2.4-1.88,1.88-3.62,2.81-5.2,2.81-.66,0-1.25-.13-1.77-.39-2.83,4-5.48,6-7.96,6-1.28,0-2.38-.53-3.29-1.59s-1.37-2.33-1.37-3.8c0-3.29,2.16-6.47,6.48-9.53,3.04-2.16,5.54-3.24,7.51-3.24,1.84,0,2.76.99,2.76,2.95,0,2.46-1.29,5.42-3.88,8.89.43.26.91.39,1.44.39.96,0,2.09-.45,3.38-1.34s2.34-1.97,3.15-3.23c.23-.3.41-.45.51-.45.09,0,.13.04.13.13ZM189.78,77.48c0-1.73-.78-2.6-2.34-2.6-1.95,0-4.32,1.86-7.12,5.58-2.8,3.72-4.2,6.86-4.2,9.4,0,1.48.71,2.21,2.12,2.21,2.31,0,4.84-1.9,7.57-5.71-.62-.68-.93-1.39-.93-2.12,0-1.05.42-2.13,1.25-3.24.83-1.11,1.65-1.67,2.44-1.67.34,0,.58.21.71.64.34-.75.51-1.58.51-2.5Z"/>
      </g>
    </g>
    <g>
      <path class="cls-1" d="M137.05,101.56c0,.1-1.35,2.15-4.06,6.16-2.17,3.2-3.67,5.57-4.5,7.09-.83,1.52-1.45,3.06-1.87,4.61-.43-.09-.8-.14-1.11-.14-.35,0-.99.07-1.93.21.81-2.27,3.29-5.79,7.43-10.56,2.54-2.93,4.23-5.02,5.06-6.27-3.1,3.51-6.22,6.4-9.34,8.67-2.02,1.47-3.23,2.2-3.63,2.2-.1,0-.14-.03-.14-.1,0-.08.07-.15.21-.2,3.03-1.31,7.43-5.02,13.19-11.14l.23-.24c.23-.23.36-.34.39-.34.05,0,.07.02.07.06Z"/>
      <path class="cls-1" d="M154.64,105.32c0,1.94-.91,4.03-2.74,6.27s-4.31,4.32-7.44,6.22c-1.38.84-2.85,1.56-4.41,2.15-1.56.59-2.74.89-3.53.89-.2,0-.3-.06-.3-.17,0-.16.15-.24.45-.24h.25c2.16,0,4.85-1.38,8.06-4.13,3.21-2.75,5.6-5.72,7.15-8.9-1.17,1.66-2.61,3.04-4.31,4.13-1.71,1.09-3.27,1.64-4.71,1.64-1.15,0-2.06-.33-2.75-1-.69-.67-1.03-1.55-1.03-2.67,0-2.03,1.22-3.96,3.67-5.78,1.18-.89,2.47-1.61,3.87-2.17s2.59-.84,3.58-.84c1.24,0,2.25.42,3.03,1.27s1.17,1.95,1.17,3.32ZM153.1,103.84c0-1.94-.88-2.9-2.63-2.9s-3.9,1.17-6.2,3.5c-2.3,2.34-3.44,4.43-3.44,6.29,0,1.47.82,2.2,2.45,2.2,1.07,0,2.36-.42,3.85-1.26,1.49-.84,2.78-1.88,3.87-3.11,1.41-1.59,2.11-3.17,2.11-4.72Z"/>
      <path class="cls-1" d="M173.48,103.41c0,2.01-2.53,3.72-7.59,5.14,1.12,1.01,1.87,1.83,2.26,2.44.38.62.57,1.3.57,2.07,0,1.7-.91,3.22-2.72,4.57-1.81,1.35-3.86,2.02-6.15,2.02-1.65,0-2.98-.36-4.01-1.07s-1.53-1.65-1.53-2.82c0-1.38.71-2.58,2.12-3.6,1.41-1.02,3.83-2.08,7.26-3.19-1.19-1.12-1.79-2.16-1.79-3.14,0-1.33.77-2.54,2.32-3.64s3.26-1.65,5.13-1.65c1.17,0,2.15.28,2.94.83.79.55,1.19,1.23,1.19,2.04ZM166.88,114.16c0-.96-.32-1.88-.97-2.77-.19-.25-.89-1.01-2.11-2.27-5.39,1.88-8.09,4.3-8.09,7.25,0,2.06,1.37,3.08,4.11,3.08,1.92,0,3.57-.52,4.97-1.57s2.09-2.29,2.09-3.72ZM172.28,102.88c0-.6-.28-1.1-.84-1.51-.56-.4-1.25-.6-2.09-.6-1.51,0-2.84.42-4,1.25s-1.74,1.8-1.74,2.89c0,.63.24,1.27.73,1.93.19.26.67.79,1.43,1.57,1.98-.65,3.56-1.48,4.73-2.48,1.17-1,1.76-2.02,1.76-3.06Z"/>
      <path class="cls-1" d="M190.37,105.78c0,2.61-1.37,5.39-4.1,8.34-3.33,3.59-6.4,5.39-9.23,5.39-1.43,0-2.61-.49-3.52-1.46s-1.37-2.23-1.37-3.76c0-3.06,1.97-6.18,5.91-9.34,3.4-2.72,6.12-4.08,8.15-4.08,1.26,0,2.27.45,3.03,1.35s1.13,2.09,1.13,3.57ZM189.06,103.9c0-1.86-.94-2.79-2.82-2.79-1.54,0-3.32.87-5.34,2.6-1.92,1.64-3.57,3.62-4.94,5.93-1.43,2.43-2.15,4.57-2.15,6.42,0,2.15,1.07,3.22,3.19,3.22,2.62,0,5.26-1.75,7.9-5.25,1.25-1.65,2.26-3.4,3.01-5.25s1.13-3.47,1.13-4.87Z"/>
    </g>
  </g>
</svg>