<?xml version="1.0" encoding="UTF-8"?>
<svg id="Livello_2" data-name="Livello 2" xmlns="http://www.w3.org/2000/svg" viewBox="0 0 388.67 287.62">
  <defs>
    <style>
      .cls-1 {
        stroke-width: 0px;
      }
    </style>
  </defs>
  <g id="Livello_1-2" data-name="Livello 1">
    <path class="cls-1" d="M217.12,248.79c-22.82-.1-45.65-.03-68.47-.06-1.2,0-1.71.21-2.02,1.55-4.09,17.58-14.64,29.43-31.8,35.17-3.18,1.07-6.59,1.46-9.9,2.17h-7.77c-1.1-.2-2.2-.43-3.31-.59-18.58-2.8-34.03-17.17-38.14-35.49-.21-.92-.44-1.84-.66-2.78h-1.94c-9.93,0-19.86.02-29.79,0-11.15-.04-20.51-7.67-22.84-18.56-.13-.62-.32-1.22-.48-1.83C0,158.71,0,89.07,0,19.44c.26-1.03.49-2.07.78-3.1C3.46,6.67,12.15.01,22.22.01c65.53-.01,131.06-.02,196.6,0,12.17,0,22.02,9.84,22.13,22.18.1,10.58.02,21.16.02,31.74,0,.57,0,1.15,0,1.95,5.42-2.09,10.85-1.43,16.21-1.45,17.06-.05,34.12.17,51.17-.09,10.14-.16,18.59,3.4,26.13,9.84,6.06,5.17,10.59,11.62,15.31,17.92,8.54,11.4,16.96,22.89,25.68,34.15,6.51,8.41,10.83,17.68,12.71,28.12.16.89.32,1.79.48,2.68v80.97c-.1.36-.24.7-.3,1.07-2,11.59-11.46,19.62-23.18,19.66-4.58.02-9.17,0-13.75,0-.52,0-1.04-.04-1.67-.07v-3.82c-.16.49-.21.58-.22.69-1.8,18.51-14.65,34.41-32.43,39.86-3.37,1.03-6.92,1.5-10.39,2.22h-7.45c-.36-.1-.71-.25-1.07-.28-20.02-2.11-36.52-17.05-40.6-36.89-.31-1.49-.9-1.71-2.21-1.72-3.5-.03-6.62.02-10.49.02h-11.15M225.43,124.67c0-33.79,0-67.58,0-101.37,0-5.12-2.66-7.75-7.78-7.75-64.83,0-129.66,0-194.49,0-5.16,0-7.61,2.46-7.61,7.65,0,31.2,0,62.4,0,93.6,0,35.9,0,71.79,0,107.69,0,4.19,4.46,8.71,8.62,8.71,9.82,0,19.65-.01,29.47.03,1.1,0,1.56-.23,1.8-1.42,4.77-24.02,27.4-40.23,51.69-37.1,19.48,2.51,35.5,17.39,39.49,36.81.31,1.49.9,1.71,2.21,1.71,22.94-.03,45.88-.02,68.82-.02,5.37,0,7.79-2.42,7.79-7.8,0-33.57,0-67.15,0-100.72ZM257.2,233.18c2.31-12.19,8.25-22.18,18.19-29.6,9.96-7.43,21.22-10.38,33.54-8.88,20.67,2.52,38.42,19.2,40.76,42.35.07-1.48.13-2.64.18-3.85,4.86,0,9.55,0,14.24,0,4.65,0,9-4.33,9-8.97,0-19.7,0-39.4,0-59.1v-1.9h-2.05c-25.04,0-50.09,0-75.13,0-13.13,0-23.86-10.75-23.87-23.89,0-9.93,0-19.86,0-29.79,0-13.85,10.17-24.04,23.98-24.05,11.66,0,23.32,0,34.97,0,.56,0,1.13,0,1.94,0-.46-.68-.71-1.15-1.04-1.55-3.58-4.22-7.55-8-12.28-10.93-3.38-2.09-6.96-3.13-11.02-3.11-19.59.11-39.18.05-58.77.05-4.51,0-8.88,4.4-8.88,8.93,0,17.54,0,35.08,0,52.62,0,31.03,0,62.07,0,93.1,0,4.23,3.53,8.32,7.53,8.54,2.85.15,5.71.03,8.7.03ZM372.24,147.7c-1.96-8.4-4.98-16.11-9.83-22.94-5.4-7.61-11.17-14.95-16.74-22.44-.68-.91-1.35-1.29-2.51-1.28-15.6.04-31.2.03-46.8.03-4.96,0-8.74,3.82-8.74,8.82,0,9.61.2,19.22-.1,28.82-.13,4.09,4.84,9.12,9.14,9.09,24.4-.19,48.8-.09,73.2-.09.7,0,1.39,0,2.39,0ZM101.07,272.07c17.25,0,31.07-13.82,31.08-31.07.01-17.25-13.78-31.08-31.03-31.11-17.32-.03-31.18,13.82-31.16,31.14.02,17.23,13.86,31.05,31.1,31.04ZM272.07,240.97c0,17.24,13.81,31.08,31.05,31.09,17.25.02,31.1-13.78,31.13-31.02.03-17.32-13.82-31.18-31.14-31.16-17.24.02-31.05,13.84-31.05,31.09Z"/>
  </g>
</svg>